<?xml version="1.0" standalone="no"?>
<!DOCTYPE svg PUBLIC "-//W3C//DTD SVG 20010904//EN"
 "http://www.w3.org/TR/2001/REC-SVG-20010904/DTD/svg10.dtd">
<svg version="1.0" xmlns="http://www.w3.org/2000/svg"
 width="1024.000000pt" height="1024.000000pt" viewBox="0 0 1024.000000 1024.000000"
 preserveAspectRatio="xMidYMid meet">

<g transform="translate(0.000000,1024.000000) scale(0.100000,-0.100000)"
fill="#000000" stroke="none">
<path d="M2230 9370 l0 -320 80 0 80 0 0 -240 0 -240 75 0 75 0 0 -310 0 -310
75 0 76 0 -1 -242 -1 -243 75 -3 76 -3 0 -144 0 -145 -81 0 -81 0 7 -160 7
-160 -76 0 -76 0 0 -240 0 -240 -75 0 -74 0 -3 -157 -3 -158 -75 0 -75 -1 -3
-157 -3 -156 -81 -3 -81 -3 -3 -155 -4 -155 -80 3 -80 4 0 -172 0 -171 -77 3
-78 3 -3 -153 -3 -152 81 0 80 0 0 -80 0 -80 -78 0 -78 0 0 -157 1 -158 78 0
77 0 0 -77 0 -78 -80 0 -80 0 0 -80 0 -80 80 0 80 0 0 -77 0 -78 -77 0 -78 0
-3 -82 -3 -83 81 0 80 0 0 -160 0 -160 80 0 80 0 0 -81 0 -80 -77 2 -78 2 -3
-84 -3 -84 80 3 80 4 3 -158 3 -159 80 -3 80 -3 0 -157 0 -157 78 -3 77 -3 0
-309 0 -310 75 0 75 0 0 -390 0 -390 1958 0 1957 0 -3 315 -3 315 81 0 80 0 0
-155 0 -155 75 0 75 0 0 -80 0 -80 80 0 80 0 0 -80 0 -80 385 0 385 0 0 80 0
80 80 0 80 0 0 315 0 315 -157 0 -158 0 3 145 3 145 -80 0 -81 0 0 88 0 87
-80 -3 -80 -4 0 81 0 81 -75 0 -75 0 0 160 0 160 -75 0 -75 0 0 240 0 240 -80
0 -80 0 0 160 0 160 -75 0 -75 0 0 80 0 80 -150 0 -150 0 0 75 0 75 75 0 75 0
0 80 0 80 75 0 75 0 0 81 0 80 77 -2 76 -2 -2 76 -2 77 80 0 81 0 0 90 0 90
-80 0 -80 0 0 85 0 85 -75 0 -75 0 0 65 0 65 75 0 75 0 0 80 0 80 80 0 80 0 0
395 0 395 -80 0 -80 0 0 158 0 159 -75 -5 -75 -4 0 161 0 161 -75 0 -75 0 0
85 0 85 -140 0 -140 0 0 155 0 155 135 0 135 0 0 80 0 80 80 0 80 0 0 80 0 80
80 0 80 0 0 325 0 325 -80 0 -80 0 0 80 0 80 -78 0 -77 0 3 80 4 80 -156 0
-156 0 0 80 0 80 -282 2 c-218 2 -283 6 -284 16 -1 6 -2 41 -3 77 l-1 65 -665
0 -665 0 0 -80 0 -80 -160 0 -160 0 0 -80 0 -80 -155 0 -155 0 0 -80 0 -80
-70 0 -70 0 0 460 0 460 -80 0 -80 0 0 155 0 154 -77 3 c-75 3 -78 4 -79 28 0
14 -1 48 -2 77 l-2 52 -72 3 -73 3 -3 78 -3 77 -74 0 -75 0 0 80 0 80 -310 0
-310 0 0 -320z m608 83 l-2 -78 -3 73 -4 72 -144 0 -145 0 0 -75 0 -75 -75 0
-75 0 0 80 0 80 225 0 225 0 -2 -77z m-273 17 c3 -5 1 -10 -4 -10 -6 0 -11 5
-11 10 0 6 2 10 4 10 3 0 8 -4 11 -10z m75 -40 c0 -16 -7 -20 -37 -21 l-38 -2
40 -6 40 -7 -40 -5 c-50 -8 -53 -6 -48 25 4 20 12 26 42 29 20 2 37 4 39 5 1
1 2 -7 2 -18z m360 -140 l0 -80 75 0 75 0 0 -160 0 -160 80 0 80 0 0 -705 0
-705 -155 0 -155 0 0 241 0 240 -77 -2 -78 -2 -3 311 -2 312 -75 0 -75 0 0
235 0 235 -75 0 -75 0 0 160 0 160 230 0 230 0 0 -80z m2568 -1072 l3 -78 284
0 285 0 0 -85 0 -85 150 0 150 0 0 -75 0 -75 80 0 80 0 0 -320 0 -319 -82 -3
-83 -3 3 -77 3 -78 -215 0 -216 0 0 -245 0 -245 -1120 0 -1120 0 0 325 0 325
-80 0 -80 0 0 80 0 80 -70 0 -70 0 0 240 0 240 70 0 70 0 0 75 0 75 160 0 160
0 0 85 0 85 155 0 155 0 0 80 0 80 663 -2 662 -3 3 -77z m-868 -3103 l0 -165
160 0 160 0 0 -70 0 -70 -235 0 -235 0 0 78 0 77 -75 -3 -75 -4 0 81 0 81 -80
0 -80 0 0 80 0 80 230 0 230 0 0 -165z m1020 5 l0 -160 -105 0 -105 0 0 160 0
160 105 0 105 0 0 -160z m1030 -5 l0 -166 -72 3 -73 3 -3 163 -2 162 75 0 75
0 0 -165z m-1559 -25 c1 -16 2 -51 3 -77 l1 -48 -87 -3 -88 -3 0 81 0 80 85 0
85 0 1 -30z m1129 -50 l0 -80 -80 0 -80 0 0 80 0 80 80 0 80 0 0 -80z m-300
-160 l0 -70 -155 0 -155 0 0 70 0 70 155 0 155 0 0 -70z m580 0 l0 -70 -75 0
-75 0 0 70 0 70 75 0 75 0 0 -70z m-3140 -800 l0 -80 75 0 75 0 0 -80 0 -80
80 0 80 0 0 -80 0 -80 70 0 70 0 0 -75 0 -75 1121 0 1122 0 -6 75 -7 75 75 0
75 0 0 -1265 0 -1265 -1490 0 -1490 0 0 950 0 949 75 -2 75 -2 0 403 0 402
-75 0 -75 0 0 75 0 75 -80 0 -80 0 0 80 0 80 155 0 155 0 0 -80z"/>
<path d="M3780 6780 l0 -240 75 0 75 0 -2 238 -3 237 -72 3 -73 3 0 -241z"/>
<path d="M5872 6773 l3 -238 2 232 3 232 63 4 62 3 -67 2 -68 2 2 -237z"/>
<path d="M5994 6690 c0 -74 1 -105 3 -67 2 37 2 97 0 135 -2 37 -3 6 -3 -68z"/>
<path d="M3497 3853 c18 -2 50 -2 70 0 21 2 7 4 -32 4 -38 0 -55 -2 -38 -4z"/>
<path d="M4715 3125 l0 -75 -82 0 -83 0 0 -77 0 -78 -75 3 -75 4 0 -86 0 -86
-82 0 -83 0 2 -307 2 -308 81 -3 80 -3 0 -79 0 -80 75 0 75 0 0 -80 0 -80 83
0 82 0 -3 -75 -4 -75 321 0 321 0 0 75 0 75 75 0 75 0 0 81 0 81 70 -4 70 -3
0 83 0 82 80 0 80 0 0 310 0 310 -80 0 -80 0 0 86 0 86 -70 -4 -70 -3 0 78 0
77 -75 0 -75 0 0 75 0 75 -318 0 -318 0 1 -75z m463 -313 l3 -82 84 0 85 0 0
-80 0 -80 80 0 80 0 0 -140 0 -140 -80 0 -80 0 0 -83 c0 -46 -2 -86 -4 -88 -2
-2 -41 -3 -85 -1 l-81 4 0 84 0 84 85 0 85 0 0 140 0 140 -85 0 -85 0 0 80 0
80 -155 0 -155 0 0 -80 0 -80 -81 0 -82 0 7 -116 c9 -168 11 -164 -85 -164
l-79 0 0 140 0 140 80 0 80 0 0 80 0 80 80 0 80 0 0 84 0 84 153 -2 152 -3 3
-81z m-306 -609 l3 -88 153 -3 153 -3 -3 -82 c-2 -45 -6 -81 -10 -79 -5 1 -73
2 -153 2 l-145 0 0 86 0 86 -80 -4 -80 -3 0 87 0 88 80 0 79 0 3 -87z"/>
</g>
</svg>
